<svg width="1200" height="400" viewBox="0 0 1200 400" xmlns="http://www.w3.org/2000/svg">
    <defs>
        <pattern id="grid" width="40" height="40" patternUnits="userSpaceOnUse">
            <path d="M 40 0 L 0 0 0 40" fill="none" stroke="black" stroke-width="1" opacity="0.1" />
        </pattern>
        <filter id="hardShadow" x="10" y="10" width="100%" height="100%">
            <feOffset in="SourceAlpha" dx="8" dy="8" />
            <feColorMatrix type="matrix" values="0 0 0 0 0  0 0 0 0 0  0 0 0 0 0  0 0 0 1 0" />
            <feBlend in="SourceGraphic" mode="normal" />
        </filter>
    </defs>

    <!-- Background -->
    <rect width="100%" height="100%" fill="#F0F0F0" />
    <rect width="100%" height="100%" fill="url(#grid)" />

    <!-- Main Yellow Container -->
    <g transform="translate(100, 50)">
        <rect x="8" y="8" width="1000" height="300" fill="black" />
        <rect x="0" y="0" width="1000" height="300" fill="#FFDE00" stroke="black" stroke-width="6" />

        <!-- Decorative Pink Stripe -->
        <rect x="940" y="0" width="60" height="300" fill="#FF90E8" stroke-left="black" stroke-width="6" />
        <line x1="940" y1="0" x2="940" y2="300" stroke="black" stroke-width="6" />

        <!-- Text Content -->
        <text x="60" y="140" font-family="Courier New, monospace" font-weight="900" font-size="100" fill="black"
            letter-spacing="-4">OG:BANANA</text>

        <!-- Subtitle Box -->
        <g transform="translate(60, 180)">
            <rect x="4" y="4" width="650" height="60" fill="black" />
            <rect width="650" height="60" fill="#23A094" stroke="black" stroke-width="4" />
            <text x="20" y="42" font-family="Helvetica, Arial, sans-serif" font-weight="bold" font-size="28"
                fill="white" letter-spacing="1">AI-POWERED META TAG GENERATOR</text>
        </g>

        <!-- Decor Icons -->
        <g transform="translate(800, 140)">
            <circle cx="0" cy="0" r="40" fill="white" stroke="black" stroke-width="4" />
            <path d="M-10 -20 L15 0 L-10 20 Z" fill="black" />
        </g>
    </g>

    <!-- Corner Badge (Adjusted Position) -->
    <g transform="translate(960, 310) rotate(-10)">
        <rect x="4" y="4" width="200" height="50" fill="black" />
        <rect width="200" height="50" fill="white" stroke="black" stroke-width="3" />
        <text x="25" y="32" font-family="monospace" font-weight="bold" font-size="20">v1.0.0 BETA</text>
    </g>
</svg>