<svg xmlns="http://www.w3.org/2000/svg" width="1200" height="400" viewBox="0 0 1200 400"><defs><pattern id="grid" width="40" height="40" patternUnits="userSpaceOnUse"><path fill="none" stroke="#000" stroke-width="1" d="M 40 0 L 0 0 0 40" opacity=".1"/></pattern><filter id="hardShadow" width="100%" height="100%" x="10" y="10"><feOffset dx="8" dy="8" in="SourceAlpha"/><feColorMatrix type="matrix" values="0 0 0 0 0 0 0 0 0 0 0 0 0 0 0 0 0 0 1 0"/><feBlend in="SourceGraphic" mode="normal"/></filter></defs><rect width="100%" height="100%" fill="#F0F0F0"/><rect width="100%" height="100%" fill="url(#grid)"/><g transform="translate(100, 50)"><rect width="1000" height="300" x="8" y="8" fill="#000"/><rect width="1000" height="300" x="0" y="0" fill="#FFDE00" stroke="#000" stroke-width="6"/><rect width="60" height="300" x="940" y="0" fill="#FF90E8" stroke-left="black" stroke-width="6"/><line x1="940" x2="940" y1="0" y2="300" stroke="#000" stroke-width="6"/><text x="60" y="140" fill="#000" font-family="Courier New, monospace" font-size="100" font-weight="900" letter-spacing="-4">OG:BANANA</text><g transform="translate(60, 180)"><rect width="650" height="60" x="4" y="4" fill="#000"/><rect width="650" height="60" fill="#23A094" stroke="#000" stroke-width="4"/><text x="20" y="42" fill="#fff" font-family="Helvetica, Arial, sans-serif" font-size="28" font-weight="bold" letter-spacing="1">AI-POWERED META TAG GENERATOR</text></g><g transform="translate(800, 140)"><circle cx="0" cy="0" r="40" fill="#fff" stroke="#000" stroke-width="4"/><path fill="#000" d="M-10 -20 L15 0 L-10 20 Z"/></g></g><g transform="translate(960, 310) rotate(-10)"><rect width="200" height="50" x="4" y="4" fill="#000"/><rect width="200" height="50" fill="#fff" stroke="#000" stroke-width="3"/><text x="25" y="32" font-family="monospace" font-size="20" font-weight="bold">v1.0.0 BETA</text></g></svg>